<svg width="538" height="130" viewBox="0 0 538 130" fill="none" xmlns="http://www.w3.org/2000/svg">
<path d="M47.3356 2H101.086L98.5856 29H44.8356L42.8356 51.5H78.5856L76.0856 78.5H40.5856L38.5856 101H92.8356L90.3356 128H36.0856H0.0856323L8.83563 29L11.0856 2H47.3356Z" fill="#F1EFF6"/>
<path opacity="0.47" d="M8.83563 29H44.8356L36.0856 128H0.0856323L8.83563 29Z" fill="url(#paint0_linear_5_3)"/>
<path d="M185.749 37.7C185.749 53.2 233.999 49.95 233.999 86.95C233.999 126.95 186.749 129.95 175.999 129.95C170.249 129.95 150.999 128.2 138.999 123.2L141.999 88.7C154.249 96.2 166.249 101.95 176.499 101.95C186.999 101.95 190.749 96.95 190.749 92.95C190.749 73.45 143.999 82.95 143.999 42.45C143.999 10.45 179.499 0.200012 197.999 0.200012C215.749 0.200012 223.749 2.20002 234.499 4.95002L231.499 39.45C231.499 39.45 212.499 28.2 200.749 28.2C191.749 28.2 185.749 31.95 185.749 37.7Z" fill="#F1EFF6"/>
<path opacity="0.47" d="M225.999 65.2H151.749C151.749 65.2 127.999 28.2 188.499 28.2H200.749C191.749 28.2 185.749 31.95 185.749 37.7C185.749 49.2 212.249 50.45 225.999 65.2Z" fill="url(#paint1_linear_5_3)"/>
<path d="M326.257 37.7C326.257 53.2 374.507 49.95 374.507 86.95C374.507 126.95 327.257 129.95 316.507 129.95C310.757 129.95 291.507 128.2 279.507 123.2L282.507 88.7C294.757 96.2 306.757 101.95 317.007 101.95C327.507 101.95 331.257 96.95 331.257 92.95C331.257 73.45 284.507 82.95 284.507 42.45C284.507 10.45 320.007 0.200012 338.507 0.200012C356.257 0.200012 364.257 2.20002 375.007 4.95002L372.007 39.45C372.007 39.45 353.007 28.2 341.257 28.2C332.257 28.2 326.257 31.95 326.257 37.7Z" fill="#F1EFF6"/>
<path opacity="0.47" d="M366.507 65.2H292.257C292.257 65.2 268.507 28.2 329.007 28.2H341.257C332.257 28.2 326.257 31.95 326.257 37.7C326.257 49.2 352.757 50.45 366.507 65.2Z" fill="url(#paint2_linear_5_3)"/>
<path d="M502.001 2H538.001L532.251 66L531.001 79.75C529.751 93.25 511.501 129.75 472.751 129.75C443.501 129.75 420.751 105.5 423.251 76L430.001 2H466.001L458.751 83C458.251 90 463.751 101 475.001 101C487.501 101 494.001 91.25 494.751 83L496.251 66L502.001 2Z" fill="#F1EFF6"/>
<path opacity="0.47" d="M532.251 66.25L531.001 80C529.751 93.5 511.501 130 472.751 130V101C473.501 101 474.251 101.25 475.001 101.25C489.751 101.25 518.751 103.5 529.001 80.25C530.501 76.25 531.751 71.75 532.251 66.25Z" fill="url(#paint3_linear_5_3)"/>
<defs>
<linearGradient id="paint0_linear_5_3" x1="22.4606" y1="29" x2="22.4606" y2="128" gradientUnits="userSpaceOnUse">
<stop offset="0.06138" stop-opacity="0.8"/>
<stop offset="0.2125" stop-opacity="0"/>
</linearGradient>
<linearGradient id="paint1_linear_5_3" x1="186.577" y1="28.2" x2="186.577" y2="65.3245" gradientUnits="userSpaceOnUse">
<stop offset="0.2228" stop-opacity="0.8"/>
<stop offset="0.5404" stop-opacity="0.2925"/>
<stop offset="0.7684" stop-opacity="0"/>
</linearGradient>
<linearGradient id="paint2_linear_5_3" x1="327.084" y1="28.2" x2="327.084" y2="65.3245" gradientUnits="userSpaceOnUse">
<stop offset="0.2228" stop-opacity="0.8"/>
<stop offset="0.5404" stop-opacity="0.2925"/>
<stop offset="0.7684" stop-opacity="0"/>
</linearGradient>
<linearGradient id="paint3_linear_5_3" x1="521.434" y1="60.0047" x2="478.954" y2="133.581" gradientUnits="userSpaceOnUse">
<stop offset="0.3957" stop-opacity="0.8"/>
<stop offset="0.5781" stop-opacity="0.2925"/>
<stop offset="0.7089" stop-opacity="0"/>
</linearGradient>
</defs>
</svg>
