<svg width="402" height="96" viewBox="0 0 402 96" fill="none" xmlns="http://www.w3.org/2000/svg">
<path d="M126.263 38.91C123.023 36.03 118.523 35.67 115.643 39.09L102.503 54.75C84.143 75.81 71.903 80.31 57.683 80.31C48.863 80.31 42.383 77.97 39.143 73.47C36.443 69.87 35.723 64.83 36.803 59.07H53.363C65.243 59.07 74.423 57.09 81.443 53.13C88.643 48.99 93.503 42.33 96.203 33.51C97.283 29.37 97.643 25.23 96.923 21.27C95.123 7.94996 82.163 0.209961 69.923 0.209961C62.723 0.209961 55.703 1.28996 49.223 4.70996C42.383 8.12996 35.5431 14.07 27.8031 23.25L2.78299 52.95C-0.0970128 56.19 -0.0969818 61.23 3.14302 64.11C4.58302 65.37 6.383 65.91 8.183 65.91C10.343 65.91 12.503 65.19 14.123 63.39L22.223 53.67C19.343 64.65 20.963 75.09 26.723 82.83C31.223 88.77 40.043 95.79 57.683 95.79C68.303 95.79 77.123 93.63 85.763 89.13C95.303 84.27 103.403 77.07 113.483 65.55L126.803 49.71C129.503 46.47 129.503 41.79 126.263 38.91V38.91ZM81.2631 29.19C80.1831 34.23 77.483 37.47 73.703 39.63C69.203 42.33 62.543 43.59 53.363 43.59H41.1231C41.3031 42.51 41.663 41.25 42.023 39.99C46.163 25.59 55.343 15.69 69.203 15.69C77.663 15.69 83.0631 21.27 81.2631 29.19Z" fill="#E500A4"/>
<path d="M141.293 95.79C148.493 95.79 155.513 94.53 163.973 89.49C171.533 84.63 179.633 76.71 191.873 62.85L209.873 41.43C212.573 38.19 212.393 33.51 209.153 30.63C205.913 27.93 200.873 28.29 198.173 31.53L180.533 52.41L172.613 61.41C171.893 55.47 169.373 48.99 162.173 36.75C159.653 32.25 154.613 25.05 153.893 21.27C153.713 20.19 153.353 18.21 156.593 14.43C159.473 11.19 158.933 6.32998 155.693 3.44998C152.813 0.929976 147.593 1.10998 145.073 4.16998L104.213 52.77C101.513 56.01 101.693 61.05 105.113 63.75C108.353 66.63 113.033 66.09 115.913 62.67L141.653 32.07C142.913 34.77 144.353 37.47 148.853 44.67C156.593 57.81 157.313 61.41 157.313 65.55C157.313 69.15 155.693 72.75 152.993 75.45C151.013 77.43 147.593 80.31 141.293 80.31C135.533 80.31 130.673 77.61 129.233 76.35C125.813 73.65 120.953 74.37 118.433 77.79C115.733 81.21 116.453 86.07 119.693 88.59C123.113 91.29 132.293 95.79 141.293 95.79V95.79Z" fill="#C600BE"/>
<path d="M217.582 95.79C224.782 95.79 231.802 94.53 240.262 89.49C247.822 84.63 255.922 76.71 268.162 62.85L286.162 41.43C288.862 38.19 288.682 33.51 285.442 30.63C282.202 27.93 277.162 28.29 274.462 31.53L256.822 52.41L248.902 61.41C248.182 55.47 245.662 48.99 238.462 36.75C235.942 32.25 230.902 25.05 230.182 21.27C230.002 20.19 229.642 18.21 232.882 14.43C235.762 11.19 235.222 6.32998 231.982 3.44998C229.102 0.929976 223.882 1.10998 221.362 4.16998L180.502 52.77C177.802 56.01 177.982 61.05 181.402 63.75C184.642 66.63 189.322 66.09 192.202 62.67L217.942 32.07C219.202 34.77 220.642 37.47 225.142 44.67C232.882 57.81 233.602 61.41 233.602 65.55C233.602 69.15 231.982 72.75 229.282 75.45C227.302 77.43 223.882 80.31 217.582 80.31C211.822 80.31 206.962 77.61 205.522 76.35C202.102 73.65 197.242 74.37 194.722 77.79C192.022 81.21 192.742 86.07 195.982 88.59C199.402 91.29 208.582 95.79 217.582 95.79V95.79Z" fill="#A800D8"/>
<path d="M262.191 66.0899C264.351 66.0899 266.151 65.5499 267.591 63.7499L286.671 41.0699L283.611 52.2299C280.011 65.1899 281.271 76.7099 287.391 84.8099C292.791 91.8299 301.251 95.7899 311.511 95.7899C319.791 95.7899 327.711 93.8099 335.091 87.3299C338.511 93.9899 343.911 95.7899 348.411 95.7899C356.511 95.7899 361.011 91.8299 365.871 86.0699L399.531 45.9299C402.231 42.6899 401.871 38.1899 398.631 35.3099C395.391 32.6099 390.531 32.9699 387.651 36.2099L353.271 77.0699C352.371 78.1499 351.291 79.0499 350.031 79.0499C348.051 79.0499 347.871 77.4299 348.591 74.9099L366.231 11.3699C367.311 7.40993 364.971 3.08993 360.831 1.82993C356.691 0.749933 352.371 3.26993 351.291 7.22993L338.331 53.8499C336.171 61.4099 332.931 67.7099 328.431 72.3899C323.571 77.6099 317.991 80.3099 311.511 80.3099C307.731 80.3099 302.691 79.4099 299.811 75.4499C296.751 71.3099 296.211 64.6499 298.551 56.5499L310.971 11.5499C312.051 7.40993 309.891 3.08993 305.751 2.00993C302.691 1.10993 299.451 2.00993 297.471 4.34993L256.251 53.3099C253.551 56.5499 253.911 61.4099 257.151 64.2899C258.591 65.5499 260.391 66.0899 262.191 66.0899V66.0899Z" fill="#8900F2"/>
</svg>
